<svg width="1291" height="826" viewBox="0 0 1291 826" fill="none" xmlns="http://www.w3.org/2000/svg">
<path d="M336.689 769.502L313.118 767.928L320.975 803.346L347.688 792.327L336.689 769.502Z" fill="#FFB9B9"/>
<path d="M552.756 703.388L497.757 649.867L466.329 674.267L404.259 749.038L411.33 760.057L486.757 708.898L537.828 775.798L586.541 751.4L552.756 703.388Z" fill="#2F2E41"/>
<path opacity="0.1" d="M552.756 703.388L497.757 649.867L466.329 674.267L404.259 749.038L411.33 760.057L486.757 708.898L537.828 775.798L586.541 751.4L552.756 703.388Z" fill="black"/>
<path d="M557.47 738.806L550.398 744.316L493.042 724.639L479.685 719.13L452.972 724.639C452.972 724.639 452.972 702.601 478.114 703.388L504.042 709.685L534.684 712.046L557.47 738.806Z" fill="#FFB9B9"/>
<path d="M608.54 797.05L591.255 808.068H570.827L475.757 772.65L336.689 797.837L332.76 767.928L460.043 712.047L571.613 749.038L608.54 797.05Z" fill="#2F2E41"/>
<path d="M496.972 656.951L485.186 659.313L482.618 656.311C480.585 653.935 479.297 651.011 478.915 647.904C478.533 644.798 479.075 641.648 480.472 638.849V638.849L513.471 595.56C513.471 595.56 522.9 574.309 537.828 582.967C552.756 591.625 525.257 605.792 525.257 605.792L508.757 631.765L510.329 645.145L496.972 656.951Z" fill="#FFB9B9"/>
<path d="M571.613 605.792C588.536 605.792 602.255 592.049 602.255 575.096C602.255 558.144 588.536 544.401 571.613 544.401C554.69 544.401 540.971 558.144 540.971 575.096C540.971 592.049 554.69 605.792 571.613 605.792Z" fill="#FFB9B9"/>
<path d="M557.863 597.528L572.006 631.372L605.791 617.204C605.791 617.204 594.791 590.444 594.791 589.657C594.791 588.87 557.863 597.528 557.863 597.528Z" fill="#FFB9B9"/>
<path d="M650.898 697.651C650.897 716.176 647.983 734.586 642.263 752.202L639.969 759.27L628.969 809.643L617.183 812.791L608.541 801.772L591.255 789.179L578.684 768.715L567.904 750.723L564.542 745.103L552.756 686.073L507.971 660.887L493.043 658.525L496.186 649.868L509.543 631.765L522.9 630.191L526.828 627.043L529.971 628.617L542.542 621.533L546.47 623.107L569.444 625.248L583.398 622.32L603.465 611.53L611.684 612.876L639.969 636.488C647.2 656.066 650.9 676.775 650.898 697.651V697.651Z" fill="#F2994A"/>
<path d="M320.353 781.689C320.353 781.689 327.39 769.742 324.418 768.347C321.446 766.952 308.822 761.391 308.822 761.391L290.31 755.246C290.31 755.246 263.599 715.478 263.013 750.06C262.426 784.643 282.462 792.956 282.462 792.956C282.462 792.956 300.331 831.479 310.453 825.336C320.575 819.193 330.704 798.341 330.704 798.341C330.704 798.341 312.451 788.511 320.353 781.689Z" fill="#2F2E41"/>
<path opacity="0.1" d="M642.326 690.795L612.469 710.472L567.905 750.722L564.542 745.103L555.113 697.879H557.47L581.828 653.016L642.326 690.795Z" fill="black"/>
<path d="M581.827 648.294L557.47 693.156H548.828L543.328 708.898L530.757 712.047L564.542 749.038L612.469 705.749L642.326 686.072L581.827 648.294Z" fill="#F2994A"/>
<path d="M547.779 552.273L544.459 553.552C543.948 553.206 543.512 552.761 543.175 552.243C542.838 551.726 542.608 551.146 542.497 550.539C542.387 549.931 542.399 549.307 542.532 548.704C542.666 548.101 542.918 547.53 543.274 547.026L537.139 546.738C541.077 541.484 546.085 537.127 551.83 533.956C557.575 530.785 563.926 528.872 570.465 528.344C577.003 527.817 583.578 528.685 589.756 530.894C595.934 533.102 601.574 536.599 606.301 541.154C606.581 540.19 609.626 542.065 610.869 543.966C611.287 542.398 614.142 549.979 615.151 555.338C615.619 553.553 617.416 556.434 615.842 559.197C616.84 559.051 617.29 561.609 616.518 563.034C617.609 562.52 617.425 565.573 616.242 567.613C617.8 567.474 603.957 588.995 598.352 601.573C596.725 594.082 594.895 586.194 589.648 580.615C588.756 579.666 587.779 578.803 586.804 577.94L581.529 573.276C575.396 567.853 569.817 561.16 561.647 559.133C556.032 557.74 552.482 557.426 555.541 551.088C552.777 552.243 550.195 553.962 547.406 555.035C547.443 554.15 547.833 553.159 547.779 552.273Z" fill="#2F2E41"/>
<path d="M586.933 584.148C589.971 584.148 592.433 581.681 592.433 578.638C592.433 575.595 589.971 573.129 586.933 573.129C583.896 573.129 581.434 575.595 581.434 578.638C581.434 581.681 583.896 584.148 586.933 584.148Z" fill="#FFB9B9"/>
<path d="M459.057 454.806H432.465V481.444H459.057V454.806Z" fill="#27AE60"/>
<path d="M475.201 466.222H442.911V433.876H475.201V466.222ZM444.315 464.816H473.797V435.282H444.315V464.816Z" fill="#3F3D56"/>
<path d="M340.243 562.752L332.941 537.138L307.372 544.452L314.673 570.066L340.243 562.752Z" fill="#27AE60"/>
<path d="M333.718 581.438L324.852 550.335L355.901 541.454L364.767 572.557L333.718 581.438ZM326.587 551.301L334.682 579.7L363.031 571.591L354.936 543.192L326.587 551.301Z" fill="#3F3D56"/>
<path d="M333.635 443.453L351.792 423.991L332.364 405.803L314.207 425.265L333.635 443.453Z" fill="#27AE60"/>
<path d="M314.285 447.474L336.333 423.842L359.924 445.928L337.876 469.56L314.285 447.474ZM336.4 425.83L316.269 447.407L337.809 467.573L357.94 445.995L336.4 425.83Z" fill="#3F3D56"/>
<path d="M1237.62 403.102H990.534V398H878.497V403.102H630.393C628.198 403.102 626.025 403.535 623.997 404.376C621.969 405.217 620.127 406.451 618.575 408.005C617.023 409.56 615.792 411.406 614.952 413.437C614.112 415.468 613.68 417.645 613.68 419.844V758.769C613.68 760.968 614.112 763.145 614.952 765.176C615.792 767.207 617.023 769.053 618.575 770.608C620.127 772.162 621.969 773.396 623.997 774.237C626.025 775.078 628.198 775.512 630.393 775.512H1237.62C1242.05 775.512 1246.3 773.748 1249.44 770.608C1252.57 767.468 1254.33 763.209 1254.33 758.769V419.844C1254.33 417.645 1253.9 415.468 1253.06 413.437C1252.22 411.406 1250.99 409.56 1249.44 408.005C1247.89 406.451 1246.04 405.217 1244.02 404.376C1241.99 403.535 1239.81 403.102 1237.62 403.102V403.102Z" fill="#3F3D56"/>
<path d="M1231.93 432.69H636.088V769.39H1231.93V432.69Z" fill="#219653"/>
<path d="M933.497 423.508C936.872 423.508 939.608 420.767 939.608 417.386C939.608 414.005 936.872 411.264 933.497 411.264C930.122 411.264 927.386 414.005 927.386 417.386C927.386 420.767 930.122 423.508 933.497 423.508Z" fill="#6FCF97"/>
<path opacity="0.1" d="M1061.53 769.39H636.088V432.69L1061.53 769.39Z" fill="black"/>
<path d="M729.319 744.194C760.95 744.194 786.593 718.507 786.593 686.821C786.593 655.134 760.95 629.447 729.319 629.447C697.687 629.447 672.045 655.134 672.045 686.821C672.045 718.507 697.687 744.194 729.319 744.194Z" fill="#F2F2F2"/>
<path d="M742.068 729.943C727.978 729.943 714.204 725.757 702.488 717.915C690.772 710.073 681.64 698.927 676.248 685.886C670.856 672.846 669.445 658.496 672.194 644.652C674.943 630.809 681.728 618.092 691.692 608.111C701.655 598.13 714.35 591.333 728.169 588.58C741.989 585.826 756.314 587.239 769.332 592.641C782.35 598.042 793.476 607.19 801.305 618.926C809.133 630.662 813.311 644.46 813.311 658.575C813.29 677.497 805.777 695.637 792.421 709.016C779.065 722.395 760.956 729.921 742.068 729.943ZM742.068 588.141C728.162 588.141 714.568 592.272 703.005 600.011C691.442 607.751 682.43 618.751 677.109 631.621C671.787 644.492 670.395 658.654 673.108 672.317C675.82 685.979 682.517 698.53 692.35 708.38C702.184 718.23 714.712 724.939 728.351 727.656C741.99 730.374 756.128 728.979 768.975 723.648C781.823 718.317 792.804 709.289 800.53 697.707C808.256 686.124 812.38 672.506 812.38 658.575C812.359 639.902 804.944 621.999 791.763 608.794C778.581 595.59 760.71 588.162 742.068 588.141V588.141Z" fill="#3F3D56"/>
<path d="M1128.18 614.275H1072.52V625.925H1128.18V614.275Z" fill="#3F3D56"/>
<path d="M1195.47 523.569H1005.23V528.562H1195.47V523.569Z" fill="#3F3D56"/>
<path d="M1195.47 539.381H1005.23V544.373H1195.47V539.381Z" fill="#3F3D56"/>
<path d="M1195.47 555.192H1005.23V560.185H1195.47V555.192Z" fill="#3F3D56"/>
<path d="M1195.47 571.003H1005.23V575.996H1195.47V571.003Z" fill="#3F3D56"/>
<path d="M1195.47 586.814H1005.23V591.807H1195.47V586.814Z" fill="#3F3D56"/>
<path d="M1195.47 439.521H1172.21V462.822H1195.47V439.521Z" fill="#F2F2F2"/>
<path d="M1206.27 473.64H1178.02V445.346H1206.27V473.64ZM1179.25 472.41H1205.04V446.576H1179.25V472.41Z" fill="#3F3D56"/>
<path d="M1271.06 763.268H1212.91V759.071C1212.91 758.962 1212.89 758.853 1212.85 758.752C1212.81 758.652 1212.75 758.56 1212.67 758.482C1212.59 758.405 1212.5 758.344 1212.4 758.302C1212.3 758.26 1212.19 758.239 1212.08 758.239H1192.15C1192.04 758.239 1191.93 758.26 1191.83 758.302C1191.73 758.344 1191.63 758.405 1191.56 758.482C1191.48 758.56 1191.42 758.652 1191.38 758.752C1191.34 758.853 1191.31 758.962 1191.31 759.071V763.268H1178.85V759.071C1178.85 758.962 1178.83 758.853 1178.79 758.752C1178.75 758.652 1178.69 758.56 1178.61 758.482C1178.53 758.405 1178.44 758.344 1178.34 758.302C1178.24 758.26 1178.13 758.239 1178.02 758.239H1158.09C1157.98 758.239 1157.87 758.26 1157.77 758.302C1157.67 758.344 1157.58 758.405 1157.5 758.482C1157.42 758.56 1157.36 758.652 1157.32 758.752C1157.28 758.853 1157.26 758.962 1157.26 759.071V763.268H1144.79V759.071C1144.79 758.962 1144.77 758.853 1144.73 758.752C1144.69 758.652 1144.63 758.56 1144.55 758.482C1144.47 758.405 1144.38 758.344 1144.28 758.302C1144.18 758.26 1144.07 758.239 1143.96 758.239H1124.03C1123.92 758.239 1123.81 758.26 1123.71 758.302C1123.61 758.344 1123.52 758.405 1123.44 758.482C1123.36 758.56 1123.3 758.652 1123.26 758.752C1123.22 758.853 1123.2 758.962 1123.2 759.071V763.268H1110.74V759.071C1110.74 758.962 1110.71 758.853 1110.67 758.752C1110.63 758.652 1110.57 758.56 1110.49 758.482C1110.41 758.405 1110.32 758.344 1110.22 758.302C1110.12 758.26 1110.01 758.239 1109.9 758.239H1089.97C1089.86 758.239 1089.75 758.26 1089.65 758.302C1089.55 758.344 1089.46 758.405 1089.38 758.482C1089.3 758.56 1089.24 758.652 1089.2 758.752C1089.16 758.853 1089.14 758.962 1089.14 759.071V763.268H1076.68V759.071C1076.68 758.962 1076.65 758.853 1076.61 758.752C1076.57 758.652 1076.51 758.56 1076.43 758.482C1076.36 758.405 1076.26 758.344 1076.16 758.302C1076.06 758.26 1075.95 758.239 1075.85 758.239H1055.91C1055.8 758.239 1055.69 758.26 1055.59 758.302C1055.49 758.344 1055.4 758.405 1055.32 758.482C1055.24 758.56 1055.18 758.652 1055.14 758.752C1055.1 758.853 1055.08 758.962 1055.08 759.071V763.268H1042.62V759.071C1042.62 758.962 1042.6 758.853 1042.55 758.752C1042.51 758.652 1042.45 758.56 1042.37 758.482C1042.3 758.405 1042.2 758.344 1042.1 758.302C1042 758.26 1041.9 758.239 1041.79 758.239H1021.85C1021.74 758.239 1021.63 758.26 1021.53 758.302C1021.43 758.344 1021.34 758.405 1021.26 758.482C1021.18 758.56 1021.12 758.652 1021.08 758.752C1021.04 758.853 1021.02 758.962 1021.02 759.071V763.268H1008.56V759.071C1008.56 758.962 1008.54 758.853 1008.49 758.752C1008.45 758.652 1008.39 758.56 1008.31 758.482C1008.24 758.405 1008.15 758.344 1008.04 758.302C1007.94 758.26 1007.84 758.239 1007.73 758.239H851.553C851.444 758.239 851.336 758.26 851.235 758.302C851.134 758.344 851.043 758.405 850.965 758.482C850.888 758.56 850.827 758.652 850.785 758.752C850.744 758.853 850.722 758.962 850.722 759.071V763.268H838.261V759.071C838.261 758.962 838.24 758.853 838.198 758.752C838.156 758.652 838.095 758.56 838.018 758.482C837.941 758.405 837.849 758.344 837.749 758.302C837.648 758.26 837.54 758.239 837.431 758.239H817.494C817.385 758.239 817.277 758.26 817.176 758.302C817.075 758.344 816.983 758.405 816.906 758.482C816.829 758.56 816.768 758.652 816.726 758.752C816.684 758.853 816.663 758.962 816.663 759.071V763.268H804.202V759.071C804.202 758.962 804.181 758.853 804.139 758.752C804.097 758.652 804.036 758.56 803.959 758.482C803.882 758.405 803.79 758.344 803.689 758.302C803.589 758.26 803.481 758.239 803.371 758.239H783.434C783.325 758.239 783.217 758.26 783.116 758.302C783.016 758.344 782.924 758.405 782.847 758.482C782.77 758.56 782.709 758.652 782.667 758.752C782.625 758.853 782.604 758.962 782.604 759.071V763.268H770.143V759.071C770.143 758.962 770.121 758.853 770.08 758.752C770.038 758.652 769.977 758.56 769.9 758.482C769.823 758.405 769.731 758.344 769.63 758.302C769.529 758.26 769.421 758.239 769.312 758.239H749.375C749.266 758.239 749.158 758.26 749.057 758.302C748.956 758.344 748.865 758.405 748.788 758.482C748.711 758.56 748.649 758.652 748.608 758.752C748.566 758.853 748.544 758.962 748.544 759.071V763.268H736.084V759.071C736.084 758.962 736.062 758.853 736.02 758.752C735.979 758.652 735.918 758.56 735.84 758.482C735.763 758.405 735.672 758.344 735.571 758.302C735.47 758.26 735.362 758.239 735.253 758.239H715.316C715.207 758.239 715.099 758.26 714.998 758.302C714.897 758.344 714.806 758.405 714.728 758.482C714.651 758.56 714.59 758.652 714.548 758.752C714.507 758.853 714.485 758.962 714.485 759.071V763.268H702.024V759.071C702.024 758.962 702.003 758.853 701.961 758.752C701.919 758.652 701.858 758.56 701.781 758.482C701.704 758.405 701.612 758.344 701.512 758.302C701.411 758.26 701.303 758.239 701.194 758.239H681.257C681.148 758.239 681.04 758.26 680.939 758.302C680.838 758.344 680.746 758.405 680.669 758.482C680.592 758.56 680.531 758.652 680.489 758.752C680.447 758.853 680.426 758.962 680.426 759.071V763.268H667.965V759.071C667.965 758.962 667.944 758.853 667.902 758.752C667.86 758.652 667.799 758.56 667.722 758.482C667.645 758.405 667.553 758.344 667.452 758.302C667.352 758.26 667.244 758.239 667.135 758.239H647.197C647.088 758.239 646.98 758.26 646.88 758.302C646.779 758.344 646.687 758.405 646.61 758.482C646.533 758.56 646.472 758.652 646.43 758.752C646.388 758.853 646.367 758.962 646.367 759.071V763.268H608.154C602.866 763.268 597.795 765.372 594.056 769.118C590.317 772.863 588.217 777.943 588.217 783.24V792.271C588.217 797.567 590.317 802.647 594.056 806.393C597.795 810.138 602.866 812.242 608.154 812.242H1271.06C1276.35 812.242 1281.42 810.138 1285.16 806.393C1288.9 802.647 1291 797.567 1291 792.271V783.24C1291 777.943 1288.9 772.863 1285.16 769.118C1281.42 765.372 1276.35 763.268 1271.06 763.268V763.268Z" fill="#3F3D56"/>
<path d="M589.641 331.025L583.643 305.118L557.691 311.127L563.689 337.034L589.641 331.025Z" fill="#27AE60"/>
<path d="M582.161 349.329L574.877 317.871L606.39 310.574L613.673 342.032L582.161 349.329ZM576.564 318.921L583.214 347.644L611.987 340.982L605.336 312.259L576.564 318.921Z" fill="#3F3D56"/>
<path d="M457.675 239.623L480.982 226.732L468.089 203.471L444.782 216.362L457.675 239.623Z" fill="#27AE60"/>
<path d="M437.999 237.481L466.3 221.828L481.957 250.073L453.655 265.727L437.999 237.481ZM465.751 223.736L439.91 238.029L454.205 263.818L480.046 249.526L465.751 223.736Z" fill="#3F3D56"/>
<path d="M572.409 206.275L595.465 219.574L608.802 196.544L585.746 183.245L572.409 206.275Z" fill="#27AE60"/>
<path d="M564.127 188.331L592.124 204.479L575.929 232.445L547.932 216.296L564.127 188.331ZM590.202 204.993L564.64 190.249L549.853 215.782L575.415 230.527L590.202 204.993Z" fill="#3F3D56"/>
<path d="M786.521 144.268L775.091 120.258L751.039 131.708L762.469 155.718L786.521 144.268Z" fill="#27AE60"/>
<path d="M783.151 163.753L769.272 134.598L798.478 120.695L812.357 149.85L783.151 163.753ZM771.145 135.261L783.817 161.881L810.483 149.186L797.811 122.567L771.145 135.261Z" fill="#3F3D56"/>
<path d="M637.984 83.3878L657.974 65.7856L640.379 45.8421L620.39 63.4444L637.984 83.3878Z" fill="#27AE60"/>
<path d="M618.309 85.5275L642.581 64.1533L663.946 88.3703L639.674 109.745L618.309 85.5275ZM642.455 66.1355L620.293 85.6511L639.8 107.762L661.962 88.2467L642.455 66.1355Z" fill="#3F3D56"/>
<path d="M742.861 26.1438L768.237 34.1727L776.309 8.81299L750.933 0.784095L742.861 26.1438Z" fill="#27AE60"/>
<path d="M730.914 10.4006L761.729 20.15L751.927 50.9439L721.112 41.1946L730.914 10.4006ZM759.963 21.0649L731.828 12.1634L722.878 40.2796L751.013 49.1812L759.963 21.0649Z" fill="#3F3D56"/>
<path d="M31.3338 694.623L57.4814 689.649L52.5533 663.496L26.4057 668.47L31.3338 694.623Z" fill="#27AE60"/>
<path d="M13.3468 686.434L45.0975 680.394L51.0816 712.151L19.3309 718.191L13.3468 686.434ZM43.9772 682.037L14.9874 687.552L20.4512 716.548L49.441 711.033L43.9772 682.037Z" fill="#3F3D56"/>
<path d="M155.407 583.462L171.139 561.992L149.699 546.225L133.967 567.695L155.407 583.462Z" fill="#27AE60"/>
<path d="M136.667 589.74L155.769 563.669L181.804 582.814L162.701 608.885L136.667 589.74ZM156.071 565.635L138.629 589.439L162.4 606.919L179.841 583.115L156.071 565.635Z" fill="#3F3D56"/>
</svg>
