<svg width="599" height="432" viewBox="0 0 599 432" fill="none" xmlns="http://www.w3.org/2000/svg">
<path d="M572.458 319.589L588.169 298.134L566.677 282.396L550.966 303.85L572.458 319.589Z" fill="#27AE60"/>
<path d="M553.707 325.867L572.785 299.816L598.882 318.927L579.804 344.979L553.707 325.867ZM573.09 301.78L555.671 325.566L579.499 343.015L596.918 319.229L573.09 301.78Z" fill="#3F3D56"/>
<path d="M232.387 23.9576L256.057 36.1316L268.27 12.4863L244.601 0.312313L232.387 23.9576Z" fill="#27AE60"/>
<path d="M223.252 6.43247L251.993 21.2152L237.162 49.9273L208.421 35.1446L223.252 6.43247ZM250.099 21.8208L223.857 8.32357L210.316 34.539L236.558 48.0363L250.099 21.8208Z" fill="#3F3D56"/>
<path d="M223.252 6.43247L251.993 21.2152L237.162 49.9273L208.421 35.1446L223.252 6.43247ZM250.099 21.8208L223.857 8.32357L210.316 34.539L236.558 48.0363L250.099 21.8208Z" fill="#3F3D56"/>
<path d="M26.4351 405.278L32.0137 431.322L58.014 425.728L52.4354 399.684L26.4351 405.278Z" fill="#27AE60"/>
<path d="M34.19 387.069L40.9639 418.694L9.39211 425.487L2.61818 393.862L34.19 387.069ZM39.2967 417.614L33.1118 388.739L4.28538 394.941L10.4703 423.816L39.2967 417.614Z" fill="#3F3D56"/>
</svg>
